<svg width="1143" height="370" viewBox="0 0 1143 370" fill="none" xmlns="http://www.w3.org/2000/svg">
<g clip-path="url(#clip0_593_498)">
<g clip-path="url(#clip1_593_498)">
<path d="M1048.15 246.992H1067.26C1068.2 246.992 1069.06 246.483 1069.51 245.666L1118.42 157.377C1119.09 156.155 1118.21 154.656 1116.81 154.656H1097.14C1095.83 154.656 1094.61 155.379 1093.99 156.536L1062.2 215.172C1061.42 216.602 1059.3 216.36 1058.87 214.791L1043.07 157.326C1042.64 155.749 1041.2 154.656 1039.57 154.656H1023.15C1021.44 154.656 1020.21 156.296 1020.68 157.941L1045.68 245.129C1045.99 246.233 1047 246.992 1048.15 246.992ZM986.059 192.002C988.558 192.002 988.868 190.523 988.485 188.98C986.948 182.787 980.683 174.19 967.621 174.19C955.097 174.19 947.228 179.931 943.675 188.627C943.018 190.237 943.495 192.002 945.999 192.002H986.059ZM1010.55 205.307C1010.3 208.138 1007.7 210.455 1004.85 210.455H945.411C943.694 210.455 942.458 212.129 943.016 213.751C944.668 218.569 949.347 226.97 961.88 226.97C970.909 226.97 976.021 224.842 978.096 223.715C978.843 223.309 979.738 223.337 980.474 223.758L994.793 231.982C997.706 233.781 997.215 235.383 994.881 237.197C989.846 241.11 978.872 248.031 961.88 248.031C904.073 248.031 905.447 153.621 968.776 153.621C999.802 153.621 1012.96 178.863 1010.55 205.307ZM845.218 132.971C843.256 132.925 841.571 134.368 841.265 136.307L828.019 219.946C827.331 224.272 829.74 225.059 832.466 224.977C877.489 223.633 879.779 204.467 884.487 170.45C888.108 144.304 875.481 133.691 845.218 132.971ZM906.499 167.66C900.877 220.248 893.638 246.964 806.903 246.964C803.309 246.964 801.985 245.436 802.537 241.936L819.007 137.958C819.55 134.532 818.494 132.93 814.713 132.93H801.985C797.976 132.93 797.078 131.808 797.695 127.904L799.81 114.543C800.115 112.619 801.77 111.206 803.717 111.206H845.241C878.006 111.206 910.649 128.839 906.499 167.66ZM569.889 285.443C569.475 288.069 571.502 290.444 574.16 290.444H598.377C607.025 290.444 617.14 281.772 624.973 267.655C631.595 255.722 671.866 183.216 684.098 161.063C686.461 156.781 685.838 154.656 680.31 154.656H665.282C663.709 154.656 662.26 155.509 661.498 156.884L630.164 213.414C626.582 219.872 624.279 219.566 622.223 212.507L606.563 157.79C606.03 155.936 604.336 154.656 602.405 154.656H588.804C584.662 154.656 583.47 156.066 584.646 160.174L609.736 247.656C610.052 248.76 609.916 249.943 609.36 250.944L605.486 257.931C602.963 262.482 599.121 268.718 595.246 268.718H576.229C574.104 268.718 572.291 270.263 571.958 272.366L569.889 285.443ZM470.584 246.992H486.714C488.14 246.992 489.353 245.957 489.575 244.547L491.667 231.341C491.765 230.738 492.049 230.179 492.48 229.747L513.758 208.468C515.09 207.137 517.32 207.41 518.292 209.025L540.258 245.586C540.781 246.46 541.724 246.992 542.741 246.992H561.327C563.581 246.992 564.972 244.534 563.811 242.603L533.377 191.954C532.693 190.814 532.873 189.353 533.814 188.413L563.276 158.95C564.861 157.366 565.558 154.658 561.498 154.658L539.256 154.656C538.326 154.656 537.033 155.2 536.383 155.867L503.637 189.401C500.142 192.983 497.92 191.869 498.703 186.926L510.163 114.555C510.443 112.798 509.087 111.206 507.303 111.206H491.175C489.749 111.206 488.534 112.241 488.312 113.649L467.724 243.642C467.446 245.4 468.804 246.992 470.584 246.992ZM740.562 174.836C702.545 174.836 702.311 226.658 733.873 226.658C773.644 226.658 773.481 174.836 740.562 174.836ZM729.6 247.873C672.91 247.873 674.983 153.621 744.411 153.621C801.025 153.621 801.247 247.873 729.6 247.873ZM408.654 174.836C370.633 174.836 370.401 226.658 401.965 226.658C441.734 226.658 441.573 174.836 408.654 174.836ZM397.692 247.873C341.002 247.873 343.075 153.621 412.507 153.621C469.113 153.621 469.339 247.873 397.692 247.873ZM258.96 111.206H377.521C380.182 111.206 382.213 113.582 381.798 116.211L379.728 129.279C379.393 131.384 377.58 132.93 375.452 132.93H330.643C328.513 132.93 326.698 134.48 326.367 136.583L309.455 243.341C309.124 245.444 307.309 246.992 305.182 246.992H291.949C289.288 246.992 287.257 244.613 287.673 241.987L304.155 137.937C304.571 135.311 302.54 132.93 299.878 132.93H256.89C254.229 132.93 252.198 130.554 252.614 127.925L254.683 114.857C255.015 112.754 256.829 111.206 258.96 111.206Z" fill="white"/>
<path d="M146.441 199.709C152.987 194.589 164.371 191.104 167.033 198.122C169.984 205.914 159.729 205.572 153.745 208.788C146.901 212.467 145.537 222.173 138.784 218.824C133.238 216.07 138.043 206.279 146.441 199.709ZM108.137 218.824C101.384 222.173 100.023 212.467 93.1759 208.788C87.1951 205.572 76.9375 205.914 79.8909 198.122C82.5505 191.104 93.9372 194.589 100.48 199.709C108.878 206.279 113.686 216.07 108.137 218.824ZM134.942 258.06C134.28 258.679 133.279 258.832 132.489 258.387C129.802 256.878 127.145 256.576 123.479 256.576C119.81 256.576 117.155 256.878 114.468 258.387C113.678 258.832 112.674 258.679 112.013 258.06C90.7361 238.164 73.8155 223.453 48.1142 216.44C46.6911 216.052 46.0984 214.381 46.9696 213.193C72.3108 178.721 79.7785 147.092 123.479 147.092C167.176 147.092 174.646 178.721 199.985 213.193C200.859 214.381 200.263 216.052 198.84 216.44C173.139 223.453 156.221 238.164 134.942 258.06ZM59.1357 92.243C73.6877 92.243 92.4196 128.7 96.929 137.931C97.4731 139.045 96.9033 140.348 95.7383 140.777C82.0625 145.797 70.7293 157.715 63.4814 169.005C62.7711 170.114 61.0824 169.812 60.786 168.53C57.222 153.111 44.1031 92.243 59.1357 92.243ZM187.819 92.243C202.839 92.243 189.758 152.996 186.179 168.484C185.88 169.784 184.17 170.088 183.448 168.967C176.197 157.687 164.877 145.792 151.219 140.777C150.051 140.348 149.481 139.045 150.025 137.931C154.535 128.7 173.267 92.243 187.819 92.243ZM194.77 185.849C194.466 185.384 194.377 184.84 194.52 184.303C197.139 174.536 221.392 80.9099 189.127 80.9099C164.187 80.9099 142.244 126.636 138.319 135.281C137.941 136.109 137.078 136.574 136.173 136.452C133.943 136.153 129.398 135.662 123.479 135.662C117.559 135.662 113.011 136.153 110.781 136.452C109.877 136.574 109.013 136.109 108.638 135.281C104.713 126.636 82.7701 80.9099 57.8275 80.9099C25.5654 80.9099 49.8157 174.536 52.4343 184.303C52.5774 184.84 52.4906 185.384 52.1865 185.849C50.3317 188.685 43.0173 199.749 30.5524 217.117C29.1115 219.128 30.0874 221.958 32.4685 222.635C40.4114 224.884 56.4479 230.078 69.6691 238.439C86.3367 248.981 104.233 266.348 107.725 269.797C108.124 270.191 108.326 270.707 108.374 271.264C108.806 276.294 112.994 283.684 123.479 283.684C133.961 283.684 138.151 276.294 138.582 271.264C138.631 270.707 138.83 270.191 139.229 269.797C142.721 266.348 160.618 248.981 177.285 238.439C190.468 230.103 206.448 224.917 214.414 222.653C216.829 221.969 217.823 219.097 216.361 217.061C203.922 199.724 196.623 188.682 194.77 185.849Z" fill="white"/>
</g>
</g>
<defs>
<clipPath id="clip0_593_498">
<rect width="1143" height="370" fill="white"/>
</clipPath>
<clipPath id="clip1_593_498">
<rect width="1142" height="210.772" fill="white" transform="translate(29 79.8087)"/>
</clipPath>
</defs>
</svg>
