<svg width="750" height="750" viewBox="0 0 750 750" fill="none" xmlns="http://www.w3.org/2000/svg">
<g clip-path="url(#clip0_593_32)">
<path d="M750 375C750 167.893 582.107 0 375 0C167.893 0 0 167.893 0 375C0 582.107 167.893 750 375 750C582.107 750 750 582.107 750 375Z" fill="#1E1F28"/>
<path d="M430.309 437.215C446.133 424.836 473.656 416.41 480.09 433.379C487.227 452.219 462.434 451.391 447.969 459.164C431.418 468.059 428.121 491.523 411.797 483.426C398.387 476.77 410.004 453.102 430.309 437.215ZM337.702 483.426C321.377 491.523 318.085 468.059 301.532 459.164C287.072 451.391 262.273 452.219 269.413 433.379C275.843 416.41 303.372 424.836 319.191 437.215C339.493 453.102 351.118 476.77 337.702 483.426ZM402.508 578.289C400.906 579.781 398.484 580.152 396.578 579.078C390.08 575.43 383.656 574.699 374.793 574.699C365.923 574.699 359.506 575.43 353.007 579.078C351.099 580.152 348.672 579.781 347.072 578.289C295.633 530.184 254.725 494.621 192.588 477.664C189.148 476.727 187.715 472.688 189.821 469.813C251.087 386.473 269.141 310.006 374.793 310.006C480.438 310.006 498.5 386.473 559.758 469.813C561.871 472.688 560.43 476.727 556.992 477.664C494.855 494.621 453.953 530.184 402.508 578.289ZM219.234 177.4C254.416 177.4 299.703 265.541 310.605 287.857C311.921 290.55 310.543 293.7 307.727 294.737C274.663 306.875 247.264 335.689 229.741 362.983C228.023 365.664 223.941 364.935 223.224 361.834C214.608 324.558 182.891 177.4 219.234 177.4ZM530.344 177.4C566.656 177.4 535.031 324.28 526.379 361.723C525.656 364.867 521.523 365.602 519.777 362.89C502.246 335.621 474.879 306.862 441.859 294.737C439.035 293.7 437.66 290.55 438.973 287.857C449.875 265.541 495.164 177.4 530.344 177.4ZM547.152 403.707C546.418 402.582 546.199 401.266 546.547 399.969C552.879 376.355 611.512 150 533.508 150C473.211 150 420.16 260.55 410.672 281.452C409.758 283.453 407.672 284.577 405.484 284.28C400.094 283.558 389.104 282.372 374.793 282.372C360.481 282.372 349.487 283.558 344.095 284.28C341.908 284.577 339.82 283.453 338.913 281.452C329.425 260.55 276.374 150 216.072 150C138.073 150 196.702 376.355 203.033 399.969C203.379 401.266 203.169 402.582 202.434 403.707C197.949 410.562 180.266 437.312 150.13 479.301C146.646 484.164 149.006 491.008 154.763 492.645C173.966 498.078 212.736 510.637 244.7 530.852C284.997 556.336 328.264 598.324 336.707 606.664C337.671 607.613 338.159 608.863 338.276 610.207C339.32 622.371 349.444 640.238 374.793 640.238C400.137 640.238 410.266 622.371 411.309 610.207C411.426 608.863 411.906 607.613 412.871 606.664C421.316 598.324 464.582 556.336 504.879 530.852C536.75 510.695 575.387 498.16 594.645 492.687C600.481 491.031 602.883 484.09 599.352 479.164C569.277 437.25 551.629 410.555 547.152 403.707Z" fill="white"/>
</g>
<defs>
<clipPath id="clip0_593_32">
<rect width="750" height="750" fill="white"/>
</clipPath>
</defs>
</svg>
